<svg xmlns="http://www.w3.org/2000/svg" viewBox="0 0 64 64">
<defs><clipPath id="r"><rect width="64" height="64" rx="14"/></clipPath></defs>
<g clip-path="url(#r)">
<rect width="64" height="64" rx="14" fill="#533afd"/>
<g transform="translate(32 36) scale(0.95) translate(-60 -48)">
<path d="M34 92 Q28 60 32 40 Q38 14 60 14 Q82 14 88 40 Q92 60 86 92 Q82 98 78 94 L76 60 Q74 42 60 42 Q46 42 44 60 L42 94 Q38 98 34 92 Z" fill="#3A2B24"/>
<circle cx="60" cy="50" r="23" fill="#FFDCB8"/>
<path d="M38 52 Q34 20 60 18 Q86 20 82 52 Q80 34 66 30 Q56 28 48 34 Q40 40 38 52 Z" fill="#3A2B24"/>
<circle cx="51" cy="49" r="3" fill="#2B2B2B"/><circle cx="69" cy="49" r="3" fill="#2B2B2B"/>
<circle cx="51" cy="49" r="8.5" fill="none" stroke="#6b5340" stroke-width="2"/>
<circle cx="69" cy="49" r="8.5" fill="none" stroke="#6b5340" stroke-width="2"/>
<line x1="59.5" y1="49" x2="60.5" y2="49" stroke="#6b5340" stroke-width="2"/>
<path d="M53 61 Q60 67 67 61" fill="none" stroke="#a3542f" stroke-width="2.6" stroke-linecap="round"/>
</g>
</g>
</svg>
